<svg width="21" height="26" viewBox="0 0 21 26" fill="none" xmlns="http://www.w3.org/2000/svg">
<path d="M1.26222 14.6881C1.34814 14.7052 1.4351 14.7131 1.52211 14.7118L16.3372 14.7118L16.0141 14.8961C15.6984 15.0794 15.4111 15.3289 15.1652 15.6333L11.0107 20.7295C10.4635 21.3702 10.3716 22.4009 10.7928 23.1717C11.2831 23.9929 12.2232 24.1713 12.8928 23.5699C12.9469 23.5213 12.9983 23.4683 13.0466 23.4113L20.5593 14.1957C21.1464 13.4763 21.147 12.3093 20.5605 11.5891C20.5601 11.5887 20.5597 11.5881 20.5593 11.5877L13.0466 2.37211C12.459 1.65335 11.5077 1.65496 10.9217 2.37574C10.8756 2.43247 10.8325 2.49283 10.7928 2.55642C10.3716 3.32713 10.4635 4.35783 11.0107 4.99854L15.1577 10.104C15.3781 10.3747 15.6316 10.6017 15.909 10.7767L16.3597 11.0255L1.60479 11.0255C0.837232 10.9906 0.163813 11.6483 0.0196161 12.5737C-0.113218 13.5785 0.443098 14.5251 1.26222 14.6881Z" fill="#DC7000"/>
</svg>
